<mxfile host="Electron" agent="Mozilla/5.0 (Windows NT 10.0; Win64; x64) AppleWebKit/537.36 (KHTML, like Gecko) draw.io/28.2.5 Chrome/138.0.7204.251 Electron/37.6.1 Safari/537.36" version="28.2.5">
  <diagram name="Leht-1" id="vH24ZEa6DNyLpfkFbd8m">
    <mxGraphModel dx="784" dy="1192" grid="1" gridSize="10" guides="1" tooltips="1" connect="1" arrows="1" fold="1" page="1" pageScale="1" pageWidth="827" pageHeight="1169" math="0" shadow="0">
      <root>
        <mxCell id="0" />
        <mxCell id="1" parent="0" />
        <mxCell id="w39DPBItygokR62jr-Fx-3" value="" style="edgeStyle=orthogonalEdgeStyle;rounded=0;orthogonalLoop=1;jettySize=auto;html=1;" edge="1" parent="1" source="w39DPBItygokR62jr-Fx-1" target="w39DPBItygokR62jr-Fx-2">
          <mxGeometry relative="1" as="geometry" />
        </mxCell>
        <mxCell id="w39DPBItygokR62jr-Fx-8" value="JAH" style="edgeLabel;html=1;align=center;verticalAlign=middle;resizable=0;points=[];" vertex="1" connectable="0" parent="w39DPBItygokR62jr-Fx-3">
          <mxGeometry x="-0.1917" y="-1" relative="1" as="geometry">
            <mxPoint as="offset" />
          </mxGeometry>
        </mxCell>
        <mxCell id="w39DPBItygokR62jr-Fx-63" style="edgeStyle=orthogonalEdgeStyle;rounded=0;orthogonalLoop=1;jettySize=auto;html=1;entryX=1;entryY=0.5;entryDx=0;entryDy=0;" edge="1" parent="1" source="w39DPBItygokR62jr-Fx-1" target="w39DPBItygokR62jr-Fx-25">
          <mxGeometry relative="1" as="geometry">
            <Array as="points">
              <mxPoint x="581.62" y="885" />
              <mxPoint x="581.62" y="490" />
            </Array>
          </mxGeometry>
        </mxCell>
        <mxCell id="w39DPBItygokR62jr-Fx-64" value="EI" style="edgeLabel;html=1;align=center;verticalAlign=middle;resizable=0;points=[];" vertex="1" connectable="0" parent="w39DPBItygokR62jr-Fx-63">
          <mxGeometry x="-0.8717" relative="1" as="geometry">
            <mxPoint as="offset" />
          </mxGeometry>
        </mxCell>
        <mxCell id="w39DPBItygokR62jr-Fx-1" value="Kas ruudu suurus on vÃ¤iksem kui 0?" style="rhombus;whiteSpace=wrap;html=1;" vertex="1" parent="1">
          <mxGeometry x="290.75" y="840" width="210" height="90" as="geometry" />
        </mxCell>
        <mxCell id="w39DPBItygokR62jr-Fx-48" value="" style="edgeStyle=orthogonalEdgeStyle;rounded=0;orthogonalLoop=1;jettySize=auto;html=1;" edge="1" parent="1" source="w39DPBItygokR62jr-Fx-2" target="w39DPBItygokR62jr-Fx-47">
          <mxGeometry relative="1" as="geometry" />
        </mxCell>
        <mxCell id="w39DPBItygokR62jr-Fx-49" value="Jah" style="edgeLabel;html=1;align=center;verticalAlign=middle;resizable=0;points=[];" vertex="1" connectable="0" parent="w39DPBItygokR62jr-Fx-48">
          <mxGeometry x="-0.3692" y="-1" relative="1" as="geometry">
            <mxPoint as="offset" />
          </mxGeometry>
        </mxCell>
        <mxCell id="w39DPBItygokR62jr-Fx-62" style="edgeStyle=orthogonalEdgeStyle;rounded=0;orthogonalLoop=1;jettySize=auto;html=1;entryX=1;entryY=0.5;entryDx=0;entryDy=0;" edge="1" parent="1" source="w39DPBItygokR62jr-Fx-2" target="w39DPBItygokR62jr-Fx-25">
          <mxGeometry relative="1" as="geometry">
            <mxPoint x="591.62" y="480" as="targetPoint" />
            <Array as="points">
              <mxPoint x="581.62" y="1050" />
              <mxPoint x="581.62" y="490" />
            </Array>
          </mxGeometry>
        </mxCell>
        <mxCell id="w39DPBItygokR62jr-Fx-65" value="EI" style="edgeLabel;html=1;align=center;verticalAlign=middle;resizable=0;points=[];" vertex="1" connectable="0" parent="w39DPBItygokR62jr-Fx-62">
          <mxGeometry x="-0.9043" y="1" relative="1" as="geometry">
            <mxPoint as="offset" />
          </mxGeometry>
        </mxCell>
        <mxCell id="w39DPBItygokR62jr-Fx-2" value="Kas ruudu suurus on suurem kui 20?" style="rhombus;whiteSpace=wrap;html=1;" vertex="1" parent="1">
          <mxGeometry x="290" y="1010" width="210.75" height="80" as="geometry" />
        </mxCell>
        <mxCell id="w39DPBItygokR62jr-Fx-41" value="" style="edgeStyle=orthogonalEdgeStyle;rounded=0;orthogonalLoop=1;jettySize=auto;html=1;" edge="1" parent="1" source="w39DPBItygokR62jr-Fx-10" target="w39DPBItygokR62jr-Fx-33">
          <mxGeometry relative="1" as="geometry" />
        </mxCell>
        <mxCell id="w39DPBItygokR62jr-Fx-10" value="kuva kasutajale enda pandud ruudu" style="shape=parallelogram;perimeter=parallelogramPerimeter;whiteSpace=wrap;html=1;fixedSize=1;" vertex="1" parent="1">
          <mxGeometry x="332.75" y="1280" width="127" height="55" as="geometry" />
        </mxCell>
        <mxCell id="w39DPBItygokR62jr-Fx-55" value="" style="edgeStyle=orthogonalEdgeStyle;rounded=0;orthogonalLoop=1;jettySize=auto;html=1;" edge="1" parent="1" source="w39DPBItygokR62jr-Fx-12" target="w39DPBItygokR62jr-Fx-19">
          <mxGeometry relative="1" as="geometry" />
        </mxCell>
        <mxCell id="w39DPBItygokR62jr-Fx-12" value="Algus" style="ellipse;whiteSpace=wrap;html=1;" vertex="1" parent="1">
          <mxGeometry x="343.38" width="107" height="50" as="geometry" />
        </mxCell>
        <mxCell id="w39DPBItygokR62jr-Fx-59" value="" style="edgeStyle=orthogonalEdgeStyle;rounded=0;orthogonalLoop=1;jettySize=auto;html=1;" edge="1" parent="1" source="w39DPBItygokR62jr-Fx-19" target="w39DPBItygokR62jr-Fx-58">
          <mxGeometry relative="1" as="geometry" />
        </mxCell>
        <mxCell id="w39DPBItygokR62jr-Fx-19" value="Kuva kasutajale tekst &quot;Palun sisesta oma kasutajanimi" style="shape=parallelogram;perimeter=parallelogramPerimeter;whiteSpace=wrap;html=1;fixedSize=1;" vertex="1" parent="1">
          <mxGeometry x="301.25" y="90" width="190" height="60" as="geometry" />
        </mxCell>
        <mxCell id="w39DPBItygokR62jr-Fx-26" value="" style="edgeStyle=orthogonalEdgeStyle;rounded=0;orthogonalLoop=1;jettySize=auto;html=1;" edge="1" parent="1" source="w39DPBItygokR62jr-Fx-21" target="w39DPBItygokR62jr-Fx-25">
          <mxGeometry relative="1" as="geometry" />
        </mxCell>
        <mxCell id="w39DPBItygokR62jr-Fx-27" value="JAH" style="edgeLabel;html=1;align=center;verticalAlign=middle;resizable=0;points=[];" vertex="1" connectable="0" parent="w39DPBItygokR62jr-Fx-26">
          <mxGeometry x="-0.1559" y="2" relative="1" as="geometry">
            <mxPoint as="offset" />
          </mxGeometry>
        </mxCell>
        <mxCell id="w39DPBItygokR62jr-Fx-56" style="edgeStyle=orthogonalEdgeStyle;rounded=0;orthogonalLoop=1;jettySize=auto;html=1;entryX=1;entryY=0.5;entryDx=0;entryDy=0;" edge="1" parent="1" source="w39DPBItygokR62jr-Fx-21" target="w39DPBItygokR62jr-Fx-19">
          <mxGeometry relative="1" as="geometry">
            <Array as="points">
              <mxPoint x="531.62" y="310" />
              <mxPoint x="531.62" y="120" />
            </Array>
          </mxGeometry>
        </mxCell>
        <mxCell id="w39DPBItygokR62jr-Fx-57" value="EI" style="edgeLabel;html=1;align=center;verticalAlign=middle;resizable=0;points=[];" vertex="1" connectable="0" parent="w39DPBItygokR62jr-Fx-56">
          <mxGeometry x="0.0315" relative="1" as="geometry">
            <mxPoint as="offset" />
          </mxGeometry>
        </mxCell>
        <mxCell id="w39DPBItygokR62jr-Fx-21" value="Kas kasutaja on sisestanud &quot;user1&quot;?" style="rhombus;whiteSpace=wrap;html=1;" vertex="1" parent="1">
          <mxGeometry x="300.38" y="270" width="190" height="80" as="geometry" />
        </mxCell>
        <mxCell id="w39DPBItygokR62jr-Fx-53" value="" style="edgeStyle=orthogonalEdgeStyle;rounded=0;orthogonalLoop=1;jettySize=auto;html=1;" edge="1" parent="1" source="w39DPBItygokR62jr-Fx-25" target="w39DPBItygokR62jr-Fx-52">
          <mxGeometry relative="1" as="geometry" />
        </mxCell>
        <mxCell id="w39DPBItygokR62jr-Fx-25" value="Kuva kasutajale tekst &quot;Kui suurt ruutu tahad?&quot;" style="shape=parallelogram;perimeter=parallelogramPerimeter;whiteSpace=wrap;html=1;fixedSize=1;" vertex="1" parent="1">
          <mxGeometry x="331.62" y="460" width="130" height="60" as="geometry" />
        </mxCell>
        <mxCell id="w39DPBItygokR62jr-Fx-31" style="edgeStyle=orthogonalEdgeStyle;rounded=0;orthogonalLoop=1;jettySize=auto;html=1;exitX=0.5;exitY=1;exitDx=0;exitDy=0;" edge="1" parent="1" source="w39DPBItygokR62jr-Fx-29" target="w39DPBItygokR62jr-Fx-1">
          <mxGeometry relative="1" as="geometry" />
        </mxCell>
        <mxCell id="w39DPBItygokR62jr-Fx-32" value="JAH" style="edgeLabel;html=1;align=center;verticalAlign=middle;resizable=0;points=[];" vertex="1" connectable="0" parent="w39DPBItygokR62jr-Fx-31">
          <mxGeometry x="-0.4" y="-1" relative="1" as="geometry">
            <mxPoint as="offset" />
          </mxGeometry>
        </mxCell>
        <mxCell id="w39DPBItygokR62jr-Fx-66" style="edgeStyle=orthogonalEdgeStyle;rounded=0;orthogonalLoop=1;jettySize=auto;html=1;entryX=1;entryY=0.5;entryDx=0;entryDy=0;" edge="1" parent="1" source="w39DPBItygokR62jr-Fx-29" target="w39DPBItygokR62jr-Fx-25">
          <mxGeometry relative="1" as="geometry">
            <Array as="points">
              <mxPoint x="581.62" y="730" />
              <mxPoint x="581.62" y="490" />
            </Array>
          </mxGeometry>
        </mxCell>
        <mxCell id="w39DPBItygokR62jr-Fx-67" value="EI" style="edgeLabel;html=1;align=center;verticalAlign=middle;resizable=0;points=[];" vertex="1" connectable="0" parent="w39DPBItygokR62jr-Fx-66">
          <mxGeometry x="-0.7843" y="2" relative="1" as="geometry">
            <mxPoint as="offset" />
          </mxGeometry>
        </mxCell>
        <mxCell id="w39DPBItygokR62jr-Fx-29" value="Kas kasutaja on sisestanud ruudu suuruse?" style="rhombus;whiteSpace=wrap;html=1;" vertex="1" parent="1">
          <mxGeometry x="320.75" y="690" width="150" height="80" as="geometry" />
        </mxCell>
        <mxCell id="w39DPBItygokR62jr-Fx-35" value="" style="edgeStyle=orthogonalEdgeStyle;rounded=0;orthogonalLoop=1;jettySize=auto;html=1;" edge="1" parent="1" source="w39DPBItygokR62jr-Fx-33" target="w39DPBItygokR62jr-Fx-34">
          <mxGeometry relative="1" as="geometry" />
        </mxCell>
        <mxCell id="w39DPBItygokR62jr-Fx-33" value="Kuva kasutajale tekst, &quot;Palun, siin on sinu ruut, suurusega {ruudusuurus}x{ruudusuurus}" style="shape=parallelogram;perimeter=parallelogramPerimeter;whiteSpace=wrap;html=1;fixedSize=1;" vertex="1" parent="1">
          <mxGeometry x="309.25" y="1410" width="174" height="60" as="geometry" />
        </mxCell>
        <mxCell id="w39DPBItygokR62jr-Fx-34" value="LÃµpp" style="ellipse;whiteSpace=wrap;html=1;" vertex="1" parent="1">
          <mxGeometry x="343.38" y="1540" width="104" height="50" as="geometry" />
        </mxCell>
        <mxCell id="w39DPBItygokR62jr-Fx-61" value="" style="edgeStyle=orthogonalEdgeStyle;rounded=0;orthogonalLoop=1;jettySize=auto;html=1;" edge="1" parent="1" source="w39DPBItygokR62jr-Fx-47" target="w39DPBItygokR62jr-Fx-10">
          <mxGeometry relative="1" as="geometry" />
        </mxCell>
        <mxCell id="w39DPBItygokR62jr-Fx-47" value="Paneb muutujasse Ã¼ksrida vÃ¤Ã¤rtuseks juurdelises sÃµne &quot;i&quot; ja tÃ¤he muutujast realkujund&amp;nbsp;" style="shape=parallelogram;perimeter=parallelogramPerimeter;whiteSpace=wrap;html=1;fixedSize=1;" vertex="1" parent="1">
          <mxGeometry x="312.88" y="1150" width="165" height="60" as="geometry" />
        </mxCell>
        <mxCell id="w39DPBItygokR62jr-Fx-54" value="" style="edgeStyle=orthogonalEdgeStyle;rounded=0;orthogonalLoop=1;jettySize=auto;html=1;" edge="1" parent="1" source="w39DPBItygokR62jr-Fx-52" target="w39DPBItygokR62jr-Fx-29">
          <mxGeometry relative="1" as="geometry" />
        </mxCell>
        <mxCell id="w39DPBItygokR62jr-Fx-52" value="Kontrollib kas kasutaja on lisanud arvu" style="shape=parallelogram;perimeter=parallelogramPerimeter;whiteSpace=wrap;html=1;fixedSize=1;" vertex="1" parent="1">
          <mxGeometry x="336.62" y="580" width="120" height="60" as="geometry" />
        </mxCell>
        <mxCell id="w39DPBItygokR62jr-Fx-60" value="" style="edgeStyle=orthogonalEdgeStyle;rounded=0;orthogonalLoop=1;jettySize=auto;html=1;" edge="1" parent="1" source="w39DPBItygokR62jr-Fx-58" target="w39DPBItygokR62jr-Fx-21">
          <mxGeometry relative="1" as="geometry" />
        </mxCell>
        <mxCell id="w39DPBItygokR62jr-Fx-58" value="Kontrollib kas kasutaja on sisestanud nime" style="shape=parallelogram;perimeter=parallelogramPerimeter;whiteSpace=wrap;html=1;fixedSize=1;" vertex="1" parent="1">
          <mxGeometry x="335.38" y="170" width="120" height="60" as="geometry" />
        </mxCell>
      </root>
    </mxGraphModel>
  </diagram>
</mxfile>
